<?xml version="1.0" standalone="no"?>
<!DOCTYPE svg PUBLIC "-//W3C//DTD SVG 20010904//EN"
 "http://www.w3.org/TR/2001/REC-SVG-20010904/DTD/svg10.dtd">
<svg version="1.0" xmlns="http://www.w3.org/2000/svg"
 width="512.000000pt" height="512.000000pt" viewBox="0 0 512.000000 512.000000"
 preserveAspectRatio="xMidYMid meet">

<g transform="translate(0.000000,512.000000) scale(0.100000,-0.100000)"
fill="#000000" stroke="none">
<path d="M480 4560 l0 -560 175 0 175 0 0 390 0 390 1660 0 1660 0 0 -910 0
-910 175 0 175 0 0 1080 0 1080 -2010 0 -2010 0 0 -560z"/>
<path d="M1471 4402 c-94 -50 -94 -204 0 -254 32 -17 88 -18 1164 -18 1056 0
1132 1 1164 18 54 27 76 65 76 127 0 62 -22 100 -76 127 -32 17 -108 18 -1164
18 -1076 0 -1132 -1 -1164 -18z"/>
<path d="M1171 4029 c-91 -8 -96 -10 -134 -46 -38 -37 -39 -39 -34 -95 5 -55
3 -59 -23 -78 -35 -25 -41 -25 -90 0 -35 18 -44 19 -91 8 l-51 -12 -49 -104
c-27 -58 -49 -113 -49 -122 0 -10 7 -34 15 -54 12 -29 27 -41 69 -60 47 -21
54 -28 60 -59 6 -33 3 -39 -39 -78 -41 -37 -45 -46 -45 -87 0 -41 6 -52 72
-131 40 -47 77 -89 83 -93 5 -4 29 -8 53 -8 35 0 52 7 88 36 32 27 50 35 66
30 40 -10 50 -23 55 -69 4 -35 13 -53 42 -81 l36 -35 115 11 c112 10 116 11
152 46 37 35 37 36 31 97 -5 58 -4 62 21 79 26 17 28 17 72 -9 44 -26 45 -26
97 -11 51 16 53 17 109 114 l57 99 -15 51 c-13 45 -21 54 -72 84 -50 30 -57
38 -59 68 -2 30 3 40 42 70 42 33 44 38 44 88 1 53 0 55 -75 143 l-77 89 -49
0 c-40 0 -56 -6 -89 -32 -39 -32 -40 -32 -82 -18 -40 14 -42 17 -45 60 -3 36
-11 53 -40 83 -21 21 -45 36 -57 36 -11 -1 -62 -6 -114 -10z m164 -354 c42
-17 94 -71 116 -120 59 -129 -25 -288 -166 -314 -189 -35 -335 155 -249 327
55 111 181 156 299 107z"/>
<path d="M2613 3720 c-46 -28 -65 -63 -65 -118 0 -57 20 -102 59 -128 27 -18
55 -19 603 -19 533 0 578 1 603 18 62 40 82 116 49 189 -35 81 -11 78 -654 78
-540 0 -564 -1 -595 -20z"/>
<path d="M1885 3023 c-51 -4 -65 -9 -93 -36 -30 -29 -33 -37 -29 -74 4 -37 1
-45 -20 -59 -24 -15 -28 -15 -63 1 -32 15 -44 15 -75 5 -33 -11 -41 -21 -75
-93 -33 -72 -36 -85 -26 -115 7 -26 21 -39 52 -55 59 -28 67 -62 25 -99 -26
-23 -31 -35 -31 -72 0 -39 6 -52 56 -110 49 -58 61 -66 91 -66 23 0 46 9 65
25 16 14 38 25 48 25 27 0 50 -27 50 -59 0 -17 11 -37 28 -54 27 -26 28 -26
116 -17 114 12 136 29 136 106 0 69 21 84 73 54 31 -18 38 -19 73 -8 33 11 45
24 81 88 39 69 42 79 33 112 -8 28 -21 43 -55 63 -58 34 -61 67 -10 108 54 43
49 79 -22 166 -55 66 -60 70 -100 71 -30 0 -50 -7 -69 -24 -24 -20 -32 -22
-61 -13 -28 9 -33 15 -33 42 0 37 -54 96 -85 93 -11 -1 -47 -3 -80 -5z m131
-272 c49 -22 80 -60 94 -112 44 -162 -152 -286 -277 -176 -153 135 -3 372 183
288z"/>
<path d="M3460 2948 l-175 -9 -67 -67 -68 -66 7 -101 6 -101 -58 -34 c-31 -19
-62 -34 -68 -32 -7 2 -46 19 -87 39 l-75 35 -81 -17 c-44 -9 -86 -20 -91 -23
-18 -12 -193 -371 -192 -394 0 -13 10 -52 22 -88 22 -64 23 -65 92 -102 39
-21 73 -38 77 -38 3 0 31 22 60 49 l54 50 169 8 170 8 31 60 c44 83 114 151
193 188 53 25 82 32 152 35 99 5 164 -11 241 -60 153 -96 226 -298 169 -466
l-21 -63 121 -149 121 -150 -3 -76 -4 -76 43 -25 43 -25 85 18 c48 9 92 23 98
30 7 6 58 85 113 175 l101 164 -20 91 -21 91 -93 57 c-52 32 -96 62 -100 67
-3 5 -8 33 -11 63 l-5 53 78 63 c44 35 80 64 81 65 1 0 5 44 8 95 l7 95 -131
163 -131 162 -93 0 -92 0 -67 -54 -68 -54 -74 32 -73 31 -6 77 -5 78 -62 70
c-54 60 -67 70 -94 68 -17 0 -110 -5 -206 -10z"/>
<path d="M610 2686 c-14 -8 -36 -34 -50 -58 -23 -39 -25 -54 -25 -158 0 -97 3
-121 21 -154 28 -55 64 -79 116 -79 95 0 147 66 156 197 7 108 -12 183 -58
228 -33 34 -43 38 -86 38 -27 -1 -60 -7 -74 -14z m127 -62 c27 -29 37 -92 31
-195 -5 -88 -24 -127 -71 -143 -34 -12 -74 13 -93 59 -21 51 -19 210 4 255 31
62 85 73 129 24z"/>
<path d="M1044 2675 c-9 -14 -38 -39 -65 -57 -36 -23 -49 -38 -49 -55 0 -13 2
-23 5 -23 11 0 70 32 88 48 16 14 17 6 17 -166 l0 -182 30 0 30 0 0 230 c0
222 -1 230 -20 230 -11 0 -27 -11 -36 -25z"/>
<path d="M659 2010 c-48 -14 -69 -31 -91 -73 -20 -36 -23 -57 -23 -152 0 -91
4 -118 22 -157 25 -54 62 -78 123 -78 73 0 110 33 136 119 22 74 15 210 -14
267 -32 62 -92 91 -153 74z m70 -56 c37 -26 51 -74 51 -176 0 -69 -5 -102 -18
-128 -21 -44 -60 -64 -96 -51 -41 16 -59 55 -64 141 -6 113 4 167 38 202 32
32 55 35 89 12z"/>
<path d="M1045 1983 c-16 -19 -46 -47 -67 -61 -26 -17 -38 -32 -38 -48 0 -31
6 -30 63 6 l47 29 2 -177 3 -177 28 -3 27 -3 0 235 c0 218 -1 236 -17 235 -10
0 -31 -16 -48 -36z"/>
<path d="M1355 1979 c-22 -22 -55 -49 -72 -60 -23 -14 -33 -28 -33 -45 0 -31
6 -30 63 6 l47 29 2 -177 3 -177 28 -3 27 -3 0 235 c0 187 -3 236 -13 236 -7
0 -31 -18 -52 -41z"/>
<path d="M1682 2010 c-77 -18 -104 -71 -109 -210 -4 -130 14 -192 66 -227 48
-33 119 -32 159 2 100 84 88 384 -18 424 -43 17 -64 19 -98 11z m90 -68 c40
-39 47 -236 12 -304 -34 -66 -120 -50 -148 26 -13 38 -8 213 8 250 23 56 86
69 128 28z"/>
<path d="M2959 1941 l-95 -6 -62 -56 -62 -56 0 -100 0 -100 -52 -32 -52 -33
-77 38 -77 37 -84 -18 -84 -17 -87 -174 c-48 -96 -87 -182 -87 -190 0 -9 9
-47 20 -83 l20 -67 90 -44 c97 -48 90 -38 104 -140 3 -21 -8 -35 -70 -83 l-74
-59 0 -87 0 -88 116 -146 c115 -144 118 -146 163 -152 25 -3 60 -8 77 -11 26
-4 43 5 108 57 l78 61 58 -22 c57 -21 58 -22 64 -67 3 -25 6 -60 6 -77 1 -24
15 -46 59 -95 l59 -63 188 12 188 11 45 39 c86 71 84 68 79 178 l-5 99 45 27
45 27 73 -44 72 -45 85 20 85 19 100 162 101 162 -19 77 c-10 42 -21 82 -24
87 -4 5 -45 33 -92 62 -46 29 -86 55 -88 58 -2 3 -6 29 -7 58 l-4 51 78 62 77
62 0 88 0 87 -115 144 -115 144 -87 5 -88 5 -61 -47 c-34 -27 -66 -48 -70 -48
-26 0 -129 51 -135 67 -4 10 -8 43 -8 73 -1 52 -4 58 -57 118 l-56 62 -96 -2
c-53 -1 -140 -4 -193 -7z m309 -585 c43 -20 79 -47 116 -87 179 -192 119 -488
-122 -602 -60 -29 -76 -32 -157 -31 -80 0 -98 4 -155 32 -83 39 -142 96 -182
175 -27 53 -32 75 -36 152 -3 75 0 100 18 148 40 107 126 191 233 229 80 28
203 21 285 -16z"/>
<path d="M605 1209 c-49 -44 -69 -116 -63 -229 8 -141 54 -204 148 -203 58 1
94 23 123 77 18 35 22 58 22 151 0 94 -3 117 -22 155 -28 55 -66 80 -127 80
-36 0 -52 -6 -81 -31z m137 -37 c26 -22 38 -76 38 -172 0 -97 -18 -145 -62
-170 -25 -13 -31 -13 -55 0 -51 28 -64 72 -61 191 2 81 7 112 21 133 31 46 79
54 119 18z"/>
<path d="M980 1226 c-45 -25 -73 -91 -78 -184 -8 -151 28 -241 107 -262 73
-19 146 22 173 100 16 46 16 215 0 262 -7 20 -29 51 -48 68 -28 24 -43 30 -82
30 -26 -1 -58 -7 -72 -14z m132 -67 c23 -30 34 -140 23 -224 -5 -45 -13 -65
-35 -87 -36 -36 -61 -35 -102 1 l-33 29 -3 114 c-2 93 0 119 15 148 32 62 96
71 135 19z"/>
<path d="M1334 1222 c-54 -34 -69 -81 -69 -217 0 -102 3 -125 20 -154 31 -52
69 -76 121 -75 57 1 92 26 123 88 20 40 24 63 24 144 1 105 -18 168 -62 206
-32 29 -117 33 -157 8z m143 -76 c20 -37 23 -224 5 -268 -25 -61 -105 -74
-139 -22 -35 54 -33 265 3 306 42 46 102 39 131 -16z"/>
<path d="M1755 1199 c-22 -22 -52 -47 -67 -55 -19 -10 -28 -22 -28 -39 0 -14
2 -25 5 -25 11 0 70 32 88 48 16 14 17 6 17 -166 l0 -182 30 0 30 0 0 230 c0
215 -1 230 -18 230 -10 0 -36 -18 -57 -41z"/>
<path d="M2164 465 c-9 -14 -38 -39 -65 -57 -36 -23 -49 -38 -49 -55 0 -30 16
-29 62 2 20 14 39 25 42 25 4 0 6 -79 6 -175 l0 -175 30 0 30 0 0 230 c0 222
-1 230 -20 230 -11 0 -27 -11 -36 -25z"/>
<path d="M620 448 c-58 -39 -74 -86 -75 -213 0 -92 3 -116 21 -150 30 -59 78
-88 133 -82 86 10 130 71 138 197 11 162 -36 258 -133 267 -40 4 -55 0 -84
-19z m125 -52 c29 -29 39 -89 33 -201 -6 -117 -40 -159 -113 -141 -41 10 -58
49 -63 141 -8 157 18 225 88 225 19 0 40 -9 55 -24z"/>
<path d="M1047 435 c-15 -19 -46 -45 -67 -57 -32 -18 -40 -29 -40 -51 l0 -29
55 31 55 31 0 -175 0 -175 30 0 30 0 0 230 c0 212 -1 230 -17 230 -10 0 -31
-16 -46 -35z"/>
<path d="M1357 435 c-15 -19 -46 -45 -67 -57 -32 -18 -40 -29 -40 -51 l0 -29
55 31 55 31 0 -175 0 -175 30 0 30 0 0 230 c0 212 -1 230 -17 230 -10 0 -31
-16 -46 -35z"/>
<path d="M1664 460 c-32 -13 -72 -66 -85 -113 -18 -67 -7 -224 19 -273 47 -91
177 -98 230 -12 45 72 50 235 12 325 -30 68 -108 101 -176 73z m109 -69 c29
-35 42 -122 31 -218 -8 -81 -39 -123 -88 -123 -62 0 -87 53 -87 185 0 132 25
185 87 185 23 0 39 -8 57 -29z"/>
</g>
</svg>
